# xmcd
#
# Track frame offsets:
#	150
#	18045
#	36831
#	51840
#	71515
#	86122
#	104276
#	121666
#	138819
#	155326
#	173002
#	189272
#	207503
#	227640
#	249278
#	275153
#	295516
#	316732
#	332918
#
# Disc length: 4799 seconds
#
# Revision: 1
# Processed by: cddbd v1.4PL0 Copyright (c) Steve Scherf et al.
# Submitted via: audiograbber 1.81.01
#
DISCID=fc12bd13
DTITLE=—борный диск - TOP BALLADS vol.2
DYEAR=2002
DGENRE=Pop
TTITLE0=Whitney Houston and Enrique Iglesias - Could I Have This Kiss Forever (me
TTITLE0=tro mix)
TTITLE1=Eros Ramazotti and Cher - Piu Che Puoi
TTITLE2=Mariah Carey and Westlife - Against All Oddr
TTITLE3=Alsou and Enrique Iglesias - You're My Number One
TTITLE4=Modjo - Lady (Hear Me Tonight) (acoustic)
TTITLE5=Rea Monn - Supergirl
TTITLE6=Spice Girls - Holler
TTITLE7=Backstreet Boy's - Shape Of My Heart
TTITLE8=Shade - King Of Sorrow
TTITLE9=Graig David - 7 Days
TTITLE10=Enia - Only Time
TTITLE11=Shivaree - Goodnight Moon
TTITLE12=Lionel Richie - Tender Heart
TTITLE13=Tony Braxton - Spanish Guitar
TTITLE14=Mark Antony - You Sang To Me
TTITLE15=Christina Aguilera - I Torn To You
TTITLE16=Brain Adams - Inside Out
TTITLE17=Melanie C - I Torn To You
TTITLE18=David Coverdale - To Many Tears
EXTD=
EXTT0=
EXTT1=
EXTT2=
EXTT3=
EXTT4=
EXTT5=
EXTT6=
EXTT7=
EXTT8=
EXTT9=
EXTT10=
EXTT11=
EXTT12=
EXTT13=
EXTT14=
EXTT15=
EXTT16=
EXTT17=
EXTT18=
PLAYORDER=
